<svg preserveAspectRatio="none" viewBox="745.0624 108.13237410071943 550.912 587.7649880095923" style="max-height: 500px" xmlns="http://www.w3.org/2000/svg" version="1.1" width="550.912" height="587.7649880095923">
<path d="M 0 0 L 2048 0 L 2048 854 L 0 854 L 0 0 z" fill="rgb(255,255,255)" transform="translate(0,0)"/>
<path d="M 746.525 108.113 C 768.519 109.014 795.264 108.371 817.548 108.337 L 941.556 108.251 L 1291.05 108.09 L 1290.84 408.162 L 1291.34 696.025 L 746.134 696.161 L 746.225 307.306 C 746.225 241.132 745.73 174.241 746.525 108.113 z" fill="rgb(53,117,71)" transform="translate(0,0)"/>
<path d="M 767.076 121.735 L 1274.32 121.919 C 1275.63 188.441 1274.19 260.715 1274.21 327.644 L 1273.99 675.033 L 1008.84 675.307 C 928.701 675.314 847.177 676.089 767.127 675.047 L 767.076 121.735 z" fill="rgb(255,255,255)" transform="translate(0,0)"/>
<path d="M 997.665 258.813 C 1008.88 259.36 1047.52 273.118 1059.62 278.313 C 1069.62 282.809 1079.48 289.242 1089.52 293.491 C 1131.97 311.456 1180.02 327.343 1198.18 374.511 C 1206.68 396.588 1204.54 425.831 1194.81 447.222 C 1184.38 470.254 1165.08 488.095 1141.31 496.699 C 1161.32 541.56 1139.74 599.151 1098.74 624.067 C 1068.78 642.279 999.872 628.274 969.197 614.639 C 936.953 600.306 911.145 586.227 876.106 576.611 C 876.548 559.062 882.232 538.74 890.823 523.401 C 915.651 530.997 941.889 541.429 966.248 550.659 C 978.74 555.546 990.532 559.207 1003.11 563.316 C 1030.54 572.277 1043.14 580.296 1072.75 576.455 C 1076.83 572.765 1082.38 566.568 1084.86 561.765 C 1095.6 540.927 1085.56 510.02 1065.24 497.255 C 1039.98 481.387 1003.08 472.816 974.411 462.916 C 957.605 457.112 941.721 449.13 925.7 440.525 C 930.026 423.78 938.105 403.373 945.906 387.943 C 969.762 400.638 996.255 408.627 1021.25 418.301 C 1035.99 425.154 1047.69 431.328 1062.85 437.993 C 1090.58 450.183 1129.48 452.799 1144.68 420.578 C 1155.73 397.142 1134.3 376.832 1115.72 365.915 C 1101.57 357.599 1084.58 352.069 1069.28 345.795 C 1040.1 333.422 1010.74 321.795 980.804 311.264 C 981.42 297.002 989.079 270.428 997.665 258.813 z" fill="rgb(53,117,71)" transform="translate(0,0)"/>
<path d="M 967.51 181.389 C 972.965 180.905 983.855 181.98 989.379 182.614 C 1049.16 189.475 1096.56 224.895 1155.33 237.599 C 1153.66 251.346 1149.78 264.732 1143.83 277.24 C 1135.18 295.243 1125.11 287.475 1109.88 281.576 C 1095.36 275.975 1080.87 270.255 1066.44 264.419 C 1032.78 250.478 992.937 230.401 955.953 240.91 C 934.684 246.953 928.44 270.658 936.106 289.497 C 949.031 321.262 986.126 327.681 1014.05 338.23 C 1043.94 349.521 1073.4 360.159 1102.01 373.141 C 1097.93 385.824 1087.23 411.851 1080.2 422.925 C 1070.28 420.085 1039.95 406.166 1029.54 401.696 C 996.847 387.646 967.465 377.282 932.42 370.245 C 891.036 364.993 868.701 388.926 889.825 423.978 C 916.528 468.288 1001.75 490.94 1047.43 503.457 C 1043.55 519.946 1038.04 536.571 1032.38 552.532 C 998.298 545.537 976.042 538.994 943.96 524.932 C 909.227 511.374 883.229 498.302 853.511 474.976 C 812.482 442.772 813.165 372.018 852.266 338.902 C 878.773 321.058 884.883 320.591 880.589 286.62 C 873.432 229.99 911.713 185.714 967.51 181.389 z" fill="rgb(53,117,71)" transform="translate(0,0)"/>
</svg>